<mxfile host="app.diagrams.net" agent="Mozilla/5.0 (Windows NT 10.0; Win64; x64) AppleWebKit/537.36 (KHTML, like Gecko) Chrome/134.0.0.0 Safari/537.36 Edg/134.0.0.0" version="26.1.0">
  <diagram name="Page-1" id="aOQq00B5rZy1dJ-S9FlN">
    <mxGraphModel dx="976" dy="495" grid="1" gridSize="10" guides="1" tooltips="1" connect="1" arrows="1" fold="1" page="1" pageScale="1" pageWidth="1100" pageHeight="850" math="0" shadow="0">
      <root>
        <mxCell id="zGH8Ojjeit0GXSnpcEq4-0" />
        <mxCell id="zGH8Ojjeit0GXSnpcEq4-1" parent="zGH8Ojjeit0GXSnpcEq4-0" />
        <mxCell id="zGH8Ojjeit0GXSnpcEq4-2" value="U" style="text;html=1;strokeColor=none;fillColor=none;align=center;verticalAlign=middle;whiteSpace=wrap;rounded=0;shadow=0;fontSize=23;rotation=-35;" parent="zGH8Ojjeit0GXSnpcEq4-1" vertex="1">
          <mxGeometry x="212.5" y="263" width="31" height="20" as="geometry" />
        </mxCell>
        <mxCell id="zGH8Ojjeit0GXSnpcEq4-3" value="U" style="text;html=1;strokeColor=none;fillColor=none;align=center;verticalAlign=middle;whiteSpace=wrap;rounded=0;shadow=0;fontSize=23;rotation=30;" parent="zGH8Ojjeit0GXSnpcEq4-1" vertex="1">
          <mxGeometry x="115" y="263" width="31" height="20" as="geometry" />
        </mxCell>
        <mxCell id="zGH8Ojjeit0GXSnpcEq4-5" value="&lt;span style=&quot;border-bottom: 1px dotted&quot;&gt;Date&lt;/span&gt;" style="ellipse;whiteSpace=wrap;html=1;align=center;shadow=0;strokeColor=#666666;strokeWidth=1;fillColor=#FFFFFF;" parent="zGH8Ojjeit0GXSnpcEq4-1" vertex="1">
          <mxGeometry x="499.99999999999994" y="620" width="100" height="40" as="geometry" />
        </mxCell>
        <mxCell id="zGH8Ojjeit0GXSnpcEq4-7" style="edgeStyle=none;rounded=0;sketch=0;jumpStyle=none;orthogonalLoop=1;jettySize=auto;html=1;exitX=0.75;exitY=0;exitDx=0;exitDy=0;entryX=0.5;entryY=1;entryDx=0;entryDy=0;startArrow=none;startFill=0;endArrow=none;endFill=0;strokeWidth=1;" parent="zGH8Ojjeit0GXSnpcEq4-1" source="JMqnGaoPB3oiBnahbfs6-10" target="zGH8Ojjeit0GXSnpcEq4-13" edge="1">
          <mxGeometry relative="1" as="geometry" />
        </mxCell>
        <mxCell id="zGH8Ojjeit0GXSnpcEq4-9" value="&lt;b&gt;APPLICATION&lt;/b&gt;" style="shape=ext;margin=3;double=1;whiteSpace=wrap;html=1;align=center;shadow=0;strokeColor=#666666;strokeWidth=1;fillColor=#E3E3E3;" parent="zGH8Ojjeit0GXSnpcEq4-1" vertex="1">
          <mxGeometry x="489.99999999999994" y="680" width="120" height="40" as="geometry" />
        </mxCell>
        <mxCell id="zGH8Ojjeit0GXSnpcEq4-10" value="&lt;b&gt;HAS&lt;/b&gt;" style="shape=rhombus;double=1;perimeter=rhombusPerimeter;whiteSpace=wrap;html=1;align=center;shadow=0;strokeColor=#666666;strokeWidth=1;fillColor=#EEEEEE;" parent="zGH8Ojjeit0GXSnpcEq4-1" vertex="1">
          <mxGeometry x="830" y="215" width="60" height="60" as="geometry" />
        </mxCell>
        <mxCell id="zGH8Ojjeit0GXSnpcEq4-11" value="" style="endArrow=none;html=1;strokeWidth=1;exitX=0.5;exitY=0;exitDx=0;exitDy=0;entryX=0.5;entryY=1;entryDx=0;entryDy=0;" parent="zGH8Ojjeit0GXSnpcEq4-1" source="zGH8Ojjeit0GXSnpcEq4-9" target="zGH8Ojjeit0GXSnpcEq4-5" edge="1">
          <mxGeometry width="50" height="50" relative="1" as="geometry">
            <mxPoint x="122.28999999999998" y="895" as="sourcePoint" />
            <mxPoint x="122.28999999999998" y="875" as="targetPoint" />
          </mxGeometry>
        </mxCell>
        <mxCell id="zGH8Ojjeit0GXSnpcEq4-13" value="Fee" style="ellipse;whiteSpace=wrap;html=1;align=center;shadow=0;strokeColor=#666666;strokeWidth=1;fillColor=#FFFFFF;" parent="zGH8Ojjeit0GXSnpcEq4-1" vertex="1">
          <mxGeometry x="870" y="660" width="100" height="40" as="geometry" />
        </mxCell>
        <mxCell id="zGH8Ojjeit0GXSnpcEq4-15" value="" style="edgeStyle=none;rounded=0;sketch=0;jumpStyle=none;orthogonalLoop=1;jettySize=auto;html=1;startArrow=none;startFill=0;endArrow=none;endFill=0;strokeWidth=1;entryX=0.25;entryY=0;entryDx=0;entryDy=0;exitX=0.5;exitY=1;exitDx=0;exitDy=0;" parent="zGH8Ojjeit0GXSnpcEq4-1" source="zGH8Ojjeit0GXSnpcEq4-16" target="JMqnGaoPB3oiBnahbfs6-10" edge="1">
          <mxGeometry relative="1" as="geometry" />
        </mxCell>
        <mxCell id="zGH8Ojjeit0GXSnpcEq4-16" value="DecisionDate" style="ellipse;whiteSpace=wrap;html=1;align=center;shadow=0;strokeColor=#666666;strokeWidth=1;fillColor=#FFFFFF;" parent="zGH8Ojjeit0GXSnpcEq4-1" vertex="1">
          <mxGeometry x="760" y="660" width="100" height="40" as="geometry" />
        </mxCell>
        <mxCell id="zGH8Ojjeit0GXSnpcEq4-18" value="Phone" style="ellipse;whiteSpace=wrap;html=1;align=center;shadow=0;strokeColor=#666666;strokeWidth=1;fillColor=#FFFFFF;" parent="zGH8Ojjeit0GXSnpcEq4-1" vertex="1">
          <mxGeometry x="10.759999999999991" y="110" width="80" height="40" as="geometry" />
        </mxCell>
        <mxCell id="zGH8Ojjeit0GXSnpcEq4-19" value="LastName" style="ellipse;whiteSpace=wrap;html=1;align=center;shadow=0;strokeColor=#666666;strokeWidth=1;fillColor=#FFFFFF;" parent="zGH8Ojjeit0GXSnpcEq4-1" vertex="1">
          <mxGeometry x="240" y="40" width="80" height="40" as="geometry" />
        </mxCell>
        <mxCell id="zGH8Ojjeit0GXSnpcEq4-20" value="FirstName" style="ellipse;whiteSpace=wrap;html=1;align=center;shadow=0;strokeColor=#666666;strokeWidth=1;fillColor=#FFFFFF;" parent="zGH8Ojjeit0GXSnpcEq4-1" vertex="1">
          <mxGeometry x="139.5" y="40" width="80" height="40" as="geometry" />
        </mxCell>
        <mxCell id="zGH8Ojjeit0GXSnpcEq4-23" style="edgeStyle=none;shape=link;rounded=0;sketch=0;jumpStyle=none;orthogonalLoop=1;jettySize=auto;html=1;exitX=0.5;exitY=1;exitDx=0;exitDy=0;startArrow=none;startFill=0;endArrow=none;endFill=0;strokeWidth=1;" parent="zGH8Ojjeit0GXSnpcEq4-1" source="zGH8Ojjeit0GXSnpcEq4-19" target="zGH8Ojjeit0GXSnpcEq4-19" edge="1">
          <mxGeometry relative="1" as="geometry" />
        </mxCell>
        <mxCell id="zGH8Ojjeit0GXSnpcEq4-25" value="Email" style="ellipse;whiteSpace=wrap;html=1;align=center;fontStyle=4;shadow=0;strokeColor=#666666;strokeWidth=1;fillColor=#FFFFFF;" parent="zGH8Ojjeit0GXSnpcEq4-1" vertex="1">
          <mxGeometry x="40" y="40" width="80" height="40" as="geometry" />
        </mxCell>
        <mxCell id="zGH8Ojjeit0GXSnpcEq4-28" value="&lt;b&gt;DOG&lt;/b&gt;" style="whiteSpace=wrap;html=1;align=center;shadow=0;strokeColor=#666666;strokeWidth=1;fillColor=#E3E3E3;" parent="zGH8Ojjeit0GXSnpcEq4-1" vertex="1">
          <mxGeometry x="720" y="125" width="120" height="40" as="geometry" />
        </mxCell>
        <mxCell id="zGH8Ojjeit0GXSnpcEq4-29" value="&lt;b&gt;BREED&lt;/b&gt;" style="whiteSpace=wrap;html=1;align=center;shadow=0;strokeColor=#666666;strokeWidth=1;fillColor=#E3E3E3;" parent="zGH8Ojjeit0GXSnpcEq4-1" vertex="1">
          <mxGeometry x="460" y="225" width="120" height="40" as="geometry" />
        </mxCell>
        <mxCell id="zGH8Ojjeit0GXSnpcEq4-30" value="&lt;b&gt;MICROCHIP&lt;/b&gt;" style="whiteSpace=wrap;html=1;align=center;shadow=0;strokeColor=#666666;strokeWidth=1;fillColor=#E3E3E3;" parent="zGH8Ojjeit0GXSnpcEq4-1" vertex="1">
          <mxGeometry x="720" y="340" width="119.99" height="40" as="geometry" />
        </mxCell>
        <mxCell id="zGH8Ojjeit0GXSnpcEq4-31" value="&lt;b&gt;CATEGORY&lt;/b&gt;&lt;span style=&quot;color: rgba(0 , 0 , 0 , 0) ; font-family: monospace ; font-size: 0px&quot;&gt;%3CmxGraphModel%3E%3Croot%3E%3CmxCell%20id%3D%220%22%2F%3E%3CmxCell%20id%3D%221%22%20parent%3D%220%22%2F%3E%3CmxCell%20id%3D%222%22%20value%3D%22%26lt%3Bb%26gt%3BDOG%26lt%3B%2Fb%26gt%3B%22%20style%3D%22whiteSpace%3Dwrap%3Bhtml%3D1%3Balign%3Dcenter%3Bshadow%3D0%3BstrokeColor%3D%23666666%3BstrokeWidth%3D1%3BfillColor%3D%23E3E3E3%3B%22%20vertex%3D%221%22%20parent%3D%221%22%3E%3CmxGeometry%20x%3D%22780%22%20y%3D%22500%22%20width%3D%22100%22%20height%3D%2240%22%20as%3D%22geometry%22%2F%3E%3C%2FmxCell%3E%3C%2Froot%3E%3C%2FmxGraphModel%3E&lt;/span&gt;" style="whiteSpace=wrap;html=1;align=center;shadow=0;strokeColor=#666666;strokeWidth=1;fillColor=#E3E3E3;" parent="zGH8Ojjeit0GXSnpcEq4-1" vertex="1">
          <mxGeometry x="460" y="476" width="120" height="40" as="geometry" />
        </mxCell>
        <mxCell id="zGH8Ojjeit0GXSnpcEq4-32" value="&lt;b&gt;MANUFACTURER&lt;/b&gt;" style="whiteSpace=wrap;html=1;align=center;shadow=0;strokeColor=#666666;strokeWidth=1;fillColor=#E3E3E3;" parent="zGH8Ojjeit0GXSnpcEq4-1" vertex="1">
          <mxGeometry x="460" y="340" width="120" height="40" as="geometry" />
        </mxCell>
        <mxCell id="zGH8Ojjeit0GXSnpcEq4-33" style="edgeStyle=none;rounded=0;sketch=0;jumpStyle=none;orthogonalLoop=1;jettySize=auto;html=1;exitX=1;exitY=0.5;exitDx=0;exitDy=0;fontSize=23;startArrow=none;startFill=0;endArrow=none;endFill=0;strokeWidth=1;align=center;verticalAlign=middle;" parent="zGH8Ojjeit0GXSnpcEq4-1" source="zGH8Ojjeit0GXSnpcEq4-34" target="zGH8Ojjeit0GXSnpcEq4-31" edge="1">
          <mxGeometry relative="1" as="geometry" />
        </mxCell>
        <mxCell id="zGH8Ojjeit0GXSnpcEq4-34" value="Name" style="ellipse;whiteSpace=wrap;html=1;align=center;fontStyle=4;shadow=0;strokeColor=#666666;strokeWidth=1;fillColor=#FFFFFF;" parent="zGH8Ojjeit0GXSnpcEq4-1" vertex="1">
          <mxGeometry x="341.01" y="476" width="100" height="40" as="geometry" />
        </mxCell>
        <mxCell id="zGH8Ojjeit0GXSnpcEq4-35" value="&lt;b&gt;HAS&lt;/b&gt;" style="shape=rhombus;perimeter=rhombusPerimeter;whiteSpace=wrap;html=1;align=center;shadow=0;strokeColor=#666666;strokeWidth=1;fillColor=#EEEEEE;" parent="zGH8Ojjeit0GXSnpcEq4-1" vertex="1">
          <mxGeometry x="621.02" y="215" width="60" height="60" as="geometry" />
        </mxCell>
        <mxCell id="zGH8Ojjeit0GXSnpcEq4-36" value="&lt;b&gt;HAS&lt;/b&gt;" style="shape=rhombus;perimeter=rhombusPerimeter;whiteSpace=wrap;html=1;align=center;shadow=0;strokeColor=#666666;strokeWidth=1;fillColor=#EEEEEE;" parent="zGH8Ojjeit0GXSnpcEq4-1" vertex="1">
          <mxGeometry x="980" y="345" width="80" height="80" as="geometry" />
        </mxCell>
        <mxCell id="zGH8Ojjeit0GXSnpcEq4-37" value="&lt;b&gt;HAS&lt;/b&gt;" style="shape=rhombus;perimeter=rhombusPerimeter;whiteSpace=wrap;html=1;align=center;shadow=0;strokeColor=#666666;strokeWidth=1;fillColor=#EEEEEE;" parent="zGH8Ojjeit0GXSnpcEq4-1" vertex="1">
          <mxGeometry x="750" y="240" width="60" height="60" as="geometry" />
        </mxCell>
        <mxCell id="zGH8Ojjeit0GXSnpcEq4-38" value="&lt;b&gt;EXPENSE&lt;/b&gt;" style="shape=ext;margin=3;double=1;whiteSpace=wrap;html=1;align=center;shadow=0;strokeColor=#666666;strokeWidth=1;fillColor=#E3E3E3;" parent="zGH8Ojjeit0GXSnpcEq4-1" vertex="1">
          <mxGeometry x="720.01" y="480" width="120" height="40" as="geometry" />
        </mxCell>
        <mxCell id="zGH8Ojjeit0GXSnpcEq4-40" value="&lt;b&gt;HAS&lt;/b&gt;" style="shape=rhombus;perimeter=rhombusPerimeter;whiteSpace=wrap;html=1;align=center;shadow=0;strokeColor=#666666;strokeWidth=1;fillColor=#EEEEEE;" parent="zGH8Ojjeit0GXSnpcEq4-1" vertex="1">
          <mxGeometry x="630" y="470" width="60" height="60" as="geometry" />
        </mxCell>
        <mxCell id="zGH8Ojjeit0GXSnpcEq4-41" style="edgeStyle=none;rounded=0;sketch=0;jumpStyle=none;orthogonalLoop=1;jettySize=auto;html=1;fontSize=23;startArrow=none;startFill=0;endArrow=none;endFill=0;strokeWidth=1;align=center;verticalAlign=middle;entryX=0;entryY=0.5;entryDx=0;entryDy=0;exitX=1;exitY=0.5;exitDx=0;exitDy=0;" parent="zGH8Ojjeit0GXSnpcEq4-1" source="zGH8Ojjeit0GXSnpcEq4-42" target="zGH8Ojjeit0GXSnpcEq4-32" edge="1">
          <mxGeometry relative="1" as="geometry">
            <mxPoint x="750" y="590" as="targetPoint" />
            <mxPoint x="750" y="610" as="sourcePoint" />
          </mxGeometry>
        </mxCell>
        <mxCell id="zGH8Ojjeit0GXSnpcEq4-42" value="Name" style="ellipse;whiteSpace=wrap;html=1;align=center;fontStyle=4;shadow=0;strokeColor=#666666;strokeWidth=1;fillColor=#FFFFFF;" parent="zGH8Ojjeit0GXSnpcEq4-1" vertex="1">
          <mxGeometry x="341.01" y="340" width="100" height="40" as="geometry" />
        </mxCell>
        <mxCell id="zGH8Ojjeit0GXSnpcEq4-43" style="edgeStyle=none;rounded=0;sketch=0;jumpStyle=none;orthogonalLoop=1;jettySize=auto;html=1;exitX=0;exitY=0.5;exitDx=0;exitDy=0;fontSize=23;startArrow=none;startFill=0;endArrow=none;endFill=0;strokeWidth=1;align=center;verticalAlign=middle;entryX=1;entryY=0.5;entryDx=0;entryDy=0;" parent="zGH8Ojjeit0GXSnpcEq4-1" source="zGH8Ojjeit0GXSnpcEq4-29" target="zGH8Ojjeit0GXSnpcEq4-44" edge="1">
          <mxGeometry relative="1" as="geometry">
            <mxPoint x="1300" y="265" as="targetPoint" />
          </mxGeometry>
        </mxCell>
        <mxCell id="zGH8Ojjeit0GXSnpcEq4-44" value="Name" style="ellipse;whiteSpace=wrap;html=1;align=center;fontStyle=4;shadow=0;strokeColor=#666666;strokeWidth=1;fillColor=#FFFFFF;" parent="zGH8Ojjeit0GXSnpcEq4-1" vertex="1">
          <mxGeometry x="341.01" y="225" width="100" height="40" as="geometry" />
        </mxCell>
        <mxCell id="zGH8Ojjeit0GXSnpcEq4-45" value="MicrochipID" style="ellipse;whiteSpace=wrap;html=1;align=center;fontStyle=4;shadow=0;strokeColor=#666666;strokeWidth=1;fillColor=#FFFFFF;" parent="zGH8Ojjeit0GXSnpcEq4-1" vertex="1">
          <mxGeometry x="730" y="400" width="100" height="40" as="geometry" />
        </mxCell>
        <mxCell id="zGH8Ojjeit0GXSnpcEq4-46" value="" style="endArrow=none;html=1;rounded=0;fontSize=23;strokeWidth=1;align=center;verticalAlign=middle;exitX=0.5;exitY=1;exitDx=0;exitDy=0;entryX=0.5;entryY=0;entryDx=0;entryDy=0;" parent="zGH8Ojjeit0GXSnpcEq4-1" source="zGH8Ojjeit0GXSnpcEq4-30" target="zGH8Ojjeit0GXSnpcEq4-45" edge="1">
          <mxGeometry relative="1" as="geometry">
            <mxPoint x="420" y="400" as="sourcePoint" />
            <mxPoint x="580" y="400" as="targetPoint" />
          </mxGeometry>
        </mxCell>
        <mxCell id="zGH8Ojjeit0GXSnpcEq4-47" value="Altered" style="ellipse;whiteSpace=wrap;html=1;align=center;shadow=0;strokeColor=#666666;strokeWidth=1;fillColor=#FFFFFF;" parent="zGH8Ojjeit0GXSnpcEq4-1" vertex="1">
          <mxGeometry x="830" y="40" width="80" height="40" as="geometry" />
        </mxCell>
        <mxCell id="zGH8Ojjeit0GXSnpcEq4-48" value="Sex" style="ellipse;whiteSpace=wrap;html=1;align=center;shadow=0;strokeColor=#666666;strokeWidth=1;fillColor=#FFFFFF;" parent="zGH8Ojjeit0GXSnpcEq4-1" vertex="1">
          <mxGeometry x="740.01" y="40" width="80" height="40" as="geometry" />
        </mxCell>
        <mxCell id="zGH8Ojjeit0GXSnpcEq4-49" value="Age" style="ellipse;whiteSpace=wrap;html=1;align=center;shadow=0;strokeColor=#666666;strokeWidth=1;fillColor=#FFFFFF;" parent="zGH8Ojjeit0GXSnpcEq4-1" vertex="1">
          <mxGeometry x="650" y="40" width="80" height="40" as="geometry" />
        </mxCell>
        <mxCell id="zGH8Ojjeit0GXSnpcEq4-50" value="Description" style="ellipse;whiteSpace=wrap;html=1;align=center;shadow=0;strokeColor=#666666;strokeWidth=1;fillColor=#FFFFFF;" parent="zGH8Ojjeit0GXSnpcEq4-1" vertex="1">
          <mxGeometry x="561.01" y="40" width="80" height="40" as="geometry" />
        </mxCell>
        <mxCell id="zGH8Ojjeit0GXSnpcEq4-51" value="SurrenderDate" style="ellipse;whiteSpace=wrap;html=1;align=center;shadow=0;strokeColor=#666666;strokeWidth=1;fillColor=#FFFFFF;fontSize=12;" parent="zGH8Ojjeit0GXSnpcEq4-1" vertex="1">
          <mxGeometry x="930" y="40" width="120" height="40" as="geometry" />
        </mxCell>
        <mxCell id="zGH8Ojjeit0GXSnpcEq4-52" value="SurrenderPhone" style="ellipse;whiteSpace=wrap;html=1;align=center;shadow=0;strokeColor=#666666;strokeWidth=1;fillColor=#FFFFFF;fontSize=12;" parent="zGH8Ojjeit0GXSnpcEq4-1" vertex="1">
          <mxGeometry x="930" y="95" width="120" height="40" as="geometry" />
        </mxCell>
        <mxCell id="zGH8Ojjeit0GXSnpcEq4-53" value="ByAnimalControl" style="ellipse;whiteSpace=wrap;html=1;align=center;shadow=0;strokeColor=#666666;strokeWidth=1;fillColor=#FFFFFF;fontSize=12;" parent="zGH8Ojjeit0GXSnpcEq4-1" vertex="1">
          <mxGeometry x="930" y="150" width="120" height="40" as="geometry" />
        </mxCell>
        <mxCell id="zGH8Ojjeit0GXSnpcEq4-57" value="" style="endArrow=none;html=1;rounded=0;entryX=0;entryY=1;entryDx=0;entryDy=0;exitX=0.75;exitY=0;exitDx=0;exitDy=0;" parent="zGH8Ojjeit0GXSnpcEq4-1" source="zGH8Ojjeit0GXSnpcEq4-28" target="zGH8Ojjeit0GXSnpcEq4-47" edge="1">
          <mxGeometry width="50" height="50" relative="1" as="geometry">
            <mxPoint x="640" y="195" as="sourcePoint" />
            <mxPoint x="690" y="145" as="targetPoint" />
          </mxGeometry>
        </mxCell>
        <mxCell id="zGH8Ojjeit0GXSnpcEq4-58" value="" style="endArrow=none;html=1;rounded=0;entryX=0.5;entryY=1;entryDx=0;entryDy=0;exitX=0.5;exitY=0;exitDx=0;exitDy=0;" parent="zGH8Ojjeit0GXSnpcEq4-1" source="zGH8Ojjeit0GXSnpcEq4-28" target="zGH8Ojjeit0GXSnpcEq4-48" edge="1">
          <mxGeometry width="50" height="50" relative="1" as="geometry">
            <mxPoint x="620" y="215" as="sourcePoint" />
            <mxPoint x="670" y="165" as="targetPoint" />
          </mxGeometry>
        </mxCell>
        <mxCell id="zGH8Ojjeit0GXSnpcEq4-59" value="" style="endArrow=none;html=1;rounded=0;entryX=0.25;entryY=0;entryDx=0;entryDy=0;exitX=1;exitY=1;exitDx=0;exitDy=0;" parent="zGH8Ojjeit0GXSnpcEq4-1" source="zGH8Ojjeit0GXSnpcEq4-49" target="zGH8Ojjeit0GXSnpcEq4-28" edge="1">
          <mxGeometry width="50" height="50" relative="1" as="geometry">
            <mxPoint x="690" y="265" as="sourcePoint" />
            <mxPoint x="740" y="215" as="targetPoint" />
          </mxGeometry>
        </mxCell>
        <mxCell id="zGH8Ojjeit0GXSnpcEq4-60" value="" style="endArrow=none;html=1;rounded=0;entryX=0;entryY=0;entryDx=0;entryDy=0;exitX=1;exitY=1;exitDx=0;exitDy=0;" parent="zGH8Ojjeit0GXSnpcEq4-1" source="zGH8Ojjeit0GXSnpcEq4-50" target="zGH8Ojjeit0GXSnpcEq4-28" edge="1">
          <mxGeometry width="50" height="50" relative="1" as="geometry">
            <mxPoint x="690" y="130" as="sourcePoint" />
            <mxPoint x="810" y="185" as="targetPoint" />
          </mxGeometry>
        </mxCell>
        <mxCell id="zGH8Ojjeit0GXSnpcEq4-61" value="" style="endArrow=none;html=1;rounded=0;exitX=0;exitY=0.5;exitDx=0;exitDy=0;entryX=1;entryY=0.25;entryDx=0;entryDy=0;" parent="zGH8Ojjeit0GXSnpcEq4-1" source="zGH8Ojjeit0GXSnpcEq4-51" target="zGH8Ojjeit0GXSnpcEq4-28" edge="1">
          <mxGeometry width="50" height="50" relative="1" as="geometry">
            <mxPoint x="730" y="215" as="sourcePoint" />
            <mxPoint x="810" y="175" as="targetPoint" />
          </mxGeometry>
        </mxCell>
        <mxCell id="zGH8Ojjeit0GXSnpcEq4-62" value="" style="endArrow=none;html=1;rounded=0;strokeWidth=1;exitX=1;exitY=0.5;exitDx=0;exitDy=0;entryX=0;entryY=0.5;entryDx=0;entryDy=0;" parent="zGH8Ojjeit0GXSnpcEq4-1" source="zGH8Ojjeit0GXSnpcEq4-82" target="zGH8Ojjeit0GXSnpcEq4-126" edge="1">
          <mxGeometry relative="1" as="geometry">
            <mxPoint x="360.00000000000045" y="625" as="sourcePoint" />
            <mxPoint x="410" y="145" as="targetPoint" />
            <Array as="points">
              <mxPoint x="380" y="145" />
            </Array>
          </mxGeometry>
        </mxCell>
        <mxCell id="zGH8Ojjeit0GXSnpcEq4-63" value="1" style="resizable=0;html=1;align=right;verticalAlign=bottom;" parent="zGH8Ojjeit0GXSnpcEq4-62" connectable="0" vertex="1">
          <mxGeometry x="1" relative="1" as="geometry" />
        </mxCell>
        <mxCell id="zGH8Ojjeit0GXSnpcEq4-64" value="" style="endArrow=none;html=1;rounded=0;strokeWidth=1;align=center;fontStyle=0;entryX=1;entryY=0.5;entryDx=0;entryDy=0;exitX=0;exitY=0.5;exitDx=0;exitDy=0;shape=link;" parent="zGH8Ojjeit0GXSnpcEq4-1" source="zGH8Ojjeit0GXSnpcEq4-28" target="zGH8Ojjeit0GXSnpcEq4-126" edge="1">
          <mxGeometry relative="1" as="geometry">
            <mxPoint x="789" y="-45" as="sourcePoint" />
            <mxPoint x="530" y="145" as="targetPoint" />
          </mxGeometry>
        </mxCell>
        <mxCell id="zGH8Ojjeit0GXSnpcEq4-65" value="N" style="resizable=0;html=1;align=right;verticalAlign=bottom;spacingRight=-10;spacingLeft=0;" parent="zGH8Ojjeit0GXSnpcEq4-64" connectable="0" vertex="1">
          <mxGeometry x="1" relative="1" as="geometry">
            <mxPoint as="offset" />
          </mxGeometry>
        </mxCell>
        <mxCell id="zGH8Ojjeit0GXSnpcEq4-66" value="" style="endArrow=none;html=1;rounded=0;exitX=0;exitY=0.5;exitDx=0;exitDy=0;entryX=1;entryY=0.5;entryDx=0;entryDy=0;" parent="zGH8Ojjeit0GXSnpcEq4-1" source="zGH8Ojjeit0GXSnpcEq4-52" target="zGH8Ojjeit0GXSnpcEq4-28" edge="1">
          <mxGeometry width="50" height="50" relative="1" as="geometry">
            <mxPoint x="870" y="205" as="sourcePoint" />
            <mxPoint x="850" y="190" as="targetPoint" />
          </mxGeometry>
        </mxCell>
        <mxCell id="zGH8Ojjeit0GXSnpcEq4-67" value="" style="endArrow=none;html=1;rounded=0;exitX=0;exitY=0.5;exitDx=0;exitDy=0;entryX=1;entryY=0.75;entryDx=0;entryDy=0;" parent="zGH8Ojjeit0GXSnpcEq4-1" source="zGH8Ojjeit0GXSnpcEq4-53" target="zGH8Ojjeit0GXSnpcEq4-28" edge="1">
          <mxGeometry width="50" height="50" relative="1" as="geometry">
            <mxPoint x="790" y="345" as="sourcePoint" />
            <mxPoint x="940" y="130" as="targetPoint" />
          </mxGeometry>
        </mxCell>
        <mxCell id="zGH8Ojjeit0GXSnpcEq4-82" value="&lt;b&gt;USER&lt;/b&gt;" style="whiteSpace=wrap;html=1;align=center;shadow=0;strokeColor=#666666;strokeWidth=1;fillColor=#E3E3E3;" parent="zGH8Ojjeit0GXSnpcEq4-1" vertex="1">
          <mxGeometry x="121" y="125" width="119" height="40" as="geometry" />
        </mxCell>
        <mxCell id="zGH8Ojjeit0GXSnpcEq4-83" value="" style="endArrow=none;html=1;strokeWidth=1;exitX=0.5;exitY=1;exitDx=0;exitDy=0;entryX=0.5;entryY=0;entryDx=0;entryDy=0;" parent="zGH8Ojjeit0GXSnpcEq4-1" source="zGH8Ojjeit0GXSnpcEq4-128" target="zGH8Ojjeit0GXSnpcEq4-84" edge="1">
          <mxGeometry width="50" height="50" relative="1" as="geometry">
            <mxPoint x="164.75" y="449.8" as="sourcePoint" />
            <mxPoint x="195.25" y="449.8" as="targetPoint" />
          </mxGeometry>
        </mxCell>
        <mxCell id="zGH8Ojjeit0GXSnpcEq4-84" value="BirthDate" style="ellipse;whiteSpace=wrap;html=1;align=center;shadow=0;strokeColor=#666666;strokeWidth=1;fillColor=#FFFFFF;" parent="zGH8Ojjeit0GXSnpcEq4-1" vertex="1">
          <mxGeometry x="59.5" y="385" width="80" height="40" as="geometry" />
        </mxCell>
        <mxCell id="zGH8Ojjeit0GXSnpcEq4-85" value="" style="endArrow=none;html=1;rounded=0;strokeWidth=1;entryX=1;entryY=0.5;entryDx=0;entryDy=0;shape=link;exitX=0.25;exitY=1;exitDx=0;exitDy=0;" parent="zGH8Ojjeit0GXSnpcEq4-1" source="zGH8Ojjeit0GXSnpcEq4-28" target="zGH8Ojjeit0GXSnpcEq4-35" edge="1">
          <mxGeometry relative="1" as="geometry">
            <mxPoint x="700" y="194.66" as="sourcePoint" />
            <mxPoint x="781" y="194.66" as="targetPoint" />
            <Array as="points" />
          </mxGeometry>
        </mxCell>
        <mxCell id="zGH8Ojjeit0GXSnpcEq4-86" value="M" style="resizable=0;html=1;align=right;verticalAlign=bottom;" parent="zGH8Ojjeit0GXSnpcEq4-85" connectable="0" vertex="1">
          <mxGeometry x="1" relative="1" as="geometry">
            <mxPoint x="6" y="-5" as="offset" />
          </mxGeometry>
        </mxCell>
        <mxCell id="zGH8Ojjeit0GXSnpcEq4-87" value="" style="endArrow=none;html=1;rounded=0;strokeWidth=1;align=center;fontStyle=0;entryX=0;entryY=0.5;entryDx=0;entryDy=0;exitX=1;exitY=0.5;exitDx=0;exitDy=0;" parent="zGH8Ojjeit0GXSnpcEq4-1" source="zGH8Ojjeit0GXSnpcEq4-29" target="zGH8Ojjeit0GXSnpcEq4-35" edge="1">
          <mxGeometry relative="1" as="geometry">
            <mxPoint x="760" y="359.31" as="sourcePoint" />
            <mxPoint x="600" y="359.31" as="targetPoint" />
          </mxGeometry>
        </mxCell>
        <mxCell id="zGH8Ojjeit0GXSnpcEq4-88" value="N" style="resizable=0;html=1;align=right;verticalAlign=bottom;spacingRight=-10;spacingLeft=0;" parent="zGH8Ojjeit0GXSnpcEq4-87" connectable="0" vertex="1">
          <mxGeometry x="1" relative="1" as="geometry">
            <mxPoint x="-10" as="offset" />
          </mxGeometry>
        </mxCell>
        <mxCell id="zGH8Ojjeit0GXSnpcEq4-89" value="" style="endArrow=none;html=1;rounded=0;strokeWidth=1;align=center;fontStyle=0;exitX=1;exitY=0.5;exitDx=0;exitDy=0;entryX=0;entryY=0.5;entryDx=0;entryDy=0;" parent="zGH8Ojjeit0GXSnpcEq4-1" source="zGH8Ojjeit0GXSnpcEq4-32" target="zGH8Ojjeit0GXSnpcEq4-93" edge="1">
          <mxGeometry relative="1" as="geometry">
            <mxPoint x="610" y="270" as="sourcePoint" />
            <mxPoint x="590" y="430" as="targetPoint" />
          </mxGeometry>
        </mxCell>
        <mxCell id="zGH8Ojjeit0GXSnpcEq4-90" value="1" style="resizable=0;html=1;align=right;verticalAlign=bottom;spacingRight=-10;spacingLeft=0;" parent="zGH8Ojjeit0GXSnpcEq4-89" connectable="0" vertex="1">
          <mxGeometry x="1" relative="1" as="geometry">
            <mxPoint x="-10" as="offset" />
          </mxGeometry>
        </mxCell>
        <mxCell id="zGH8Ojjeit0GXSnpcEq4-91" value="" style="endArrow=none;html=1;rounded=0;strokeWidth=1;exitX=0.5;exitY=1;exitDx=0;exitDy=0;entryX=0.5;entryY=0;entryDx=0;entryDy=0;" parent="zGH8Ojjeit0GXSnpcEq4-1" source="zGH8Ojjeit0GXSnpcEq4-28" target="zGH8Ojjeit0GXSnpcEq4-37" edge="1">
          <mxGeometry relative="1" as="geometry">
            <mxPoint x="760" y="175" as="sourcePoint" />
            <mxPoint x="700" y="270" as="targetPoint" />
            <Array as="points" />
          </mxGeometry>
        </mxCell>
        <mxCell id="zGH8Ojjeit0GXSnpcEq4-92" value="1" style="resizable=0;html=1;align=right;verticalAlign=bottom;" parent="zGH8Ojjeit0GXSnpcEq4-91" connectable="0" vertex="1">
          <mxGeometry x="1" relative="1" as="geometry">
            <mxPoint as="offset" />
          </mxGeometry>
        </mxCell>
        <mxCell id="zGH8Ojjeit0GXSnpcEq4-93" value="&lt;b&gt;MAKES&lt;/b&gt;" style="shape=rhombus;perimeter=rhombusPerimeter;whiteSpace=wrap;html=1;align=center;shadow=0;strokeColor=#666666;strokeWidth=1;fillColor=#EEEEEE;" parent="zGH8Ojjeit0GXSnpcEq4-1" vertex="1">
          <mxGeometry x="620" y="330" width="60" height="60" as="geometry" />
        </mxCell>
        <mxCell id="zGH8Ojjeit0GXSnpcEq4-94" value="" style="endArrow=none;html=1;rounded=0;strokeWidth=1;exitX=0;exitY=0.5;exitDx=0;exitDy=0;entryX=1;entryY=0.5;entryDx=0;entryDy=0;shape=link;" parent="zGH8Ojjeit0GXSnpcEq4-1" source="zGH8Ojjeit0GXSnpcEq4-30" target="zGH8Ojjeit0GXSnpcEq4-93" edge="1">
          <mxGeometry relative="1" as="geometry">
            <mxPoint x="660" y="240" as="sourcePoint" />
            <mxPoint x="580" y="345" as="targetPoint" />
            <Array as="points">
              <mxPoint x="700" y="360" />
            </Array>
          </mxGeometry>
        </mxCell>
        <mxCell id="zGH8Ojjeit0GXSnpcEq4-95" value="N" style="resizable=0;html=1;align=right;verticalAlign=bottom;" parent="zGH8Ojjeit0GXSnpcEq4-94" connectable="0" vertex="1">
          <mxGeometry x="1" relative="1" as="geometry">
            <mxPoint x="10" as="offset" />
          </mxGeometry>
        </mxCell>
        <mxCell id="zGH8Ojjeit0GXSnpcEq4-96" value="" style="endArrow=none;html=1;rounded=0;strokeWidth=1;exitX=0.5;exitY=1;exitDx=0;exitDy=0;entryX=0.5;entryY=0;entryDx=0;entryDy=0;" parent="zGH8Ojjeit0GXSnpcEq4-1" source="zGH8Ojjeit0GXSnpcEq4-37" target="zGH8Ojjeit0GXSnpcEq4-30" edge="1">
          <mxGeometry relative="1" as="geometry">
            <mxPoint x="790" y="175" as="sourcePoint" />
            <mxPoint x="790" y="245" as="targetPoint" />
            <Array as="points" />
          </mxGeometry>
        </mxCell>
        <mxCell id="zGH8Ojjeit0GXSnpcEq4-97" value="1" style="resizable=0;html=1;align=right;verticalAlign=bottom;" parent="zGH8Ojjeit0GXSnpcEq4-96" connectable="0" vertex="1">
          <mxGeometry x="1" relative="1" as="geometry">
            <mxPoint y="-20" as="offset" />
          </mxGeometry>
        </mxCell>
        <mxCell id="zGH8Ojjeit0GXSnpcEq4-98" value="" style="endArrow=none;html=1;rounded=0;strokeWidth=1;exitX=0.75;exitY=1;exitDx=0;exitDy=0;entryX=0.5;entryY=0;entryDx=0;entryDy=0;" parent="zGH8Ojjeit0GXSnpcEq4-1" source="zGH8Ojjeit0GXSnpcEq4-28" target="zGH8Ojjeit0GXSnpcEq4-10" edge="1">
          <mxGeometry relative="1" as="geometry">
            <mxPoint x="800" y="185" as="sourcePoint" />
            <mxPoint x="870" y="230" as="targetPoint" />
            <Array as="points" />
          </mxGeometry>
        </mxCell>
        <mxCell id="zGH8Ojjeit0GXSnpcEq4-99" value="1" style="resizable=0;html=1;align=right;verticalAlign=bottom;" parent="zGH8Ojjeit0GXSnpcEq4-98" connectable="0" vertex="1">
          <mxGeometry x="1" relative="1" as="geometry">
            <mxPoint x="-10" y="10" as="offset" />
          </mxGeometry>
        </mxCell>
        <mxCell id="zGH8Ojjeit0GXSnpcEq4-100" value="Amount" style="ellipse;whiteSpace=wrap;html=1;align=center;shadow=0;strokeColor=#666666;strokeWidth=1;fillColor=#FFFFFF;" parent="zGH8Ojjeit0GXSnpcEq4-1" vertex="1">
          <mxGeometry x="690" y="540" width="80" height="40" as="geometry" />
        </mxCell>
        <mxCell id="zGH8Ojjeit0GXSnpcEq4-101" value="" style="endArrow=none;html=1;rounded=0;strokeWidth=1;entryX=0.5;entryY=1;entryDx=0;entryDy=0;shape=link;exitX=1;exitY=0.5;exitDx=0;exitDy=0;" parent="zGH8Ojjeit0GXSnpcEq4-1" source="zGH8Ojjeit0GXSnpcEq4-38" target="zGH8Ojjeit0GXSnpcEq4-10" edge="1">
          <mxGeometry relative="1" as="geometry">
            <mxPoint x="900" y="360" as="sourcePoint" />
            <mxPoint x="870" y="290" as="targetPoint" />
            <Array as="points">
              <mxPoint x="860" y="500" />
            </Array>
          </mxGeometry>
        </mxCell>
        <mxCell id="zGH8Ojjeit0GXSnpcEq4-102" value="N" style="resizable=0;html=1;align=right;verticalAlign=bottom;" parent="zGH8Ojjeit0GXSnpcEq4-101" connectable="0" vertex="1">
          <mxGeometry x="1" relative="1" as="geometry">
            <mxPoint x="20" y="10" as="offset" />
          </mxGeometry>
        </mxCell>
        <mxCell id="zGH8Ojjeit0GXSnpcEq4-103" value="" style="endArrow=none;html=1;rounded=0;strokeWidth=1;align=center;fontStyle=0;exitX=1.013;exitY=0.595;exitDx=0;exitDy=0;entryX=0;entryY=0.5;entryDx=0;entryDy=0;exitPerimeter=0;" parent="zGH8Ojjeit0GXSnpcEq4-1" source="zGH8Ojjeit0GXSnpcEq4-31" target="zGH8Ojjeit0GXSnpcEq4-40" edge="1">
          <mxGeometry relative="1" as="geometry">
            <mxPoint x="600" y="499.76" as="sourcePoint" />
            <mxPoint x="630" y="499.76" as="targetPoint" />
          </mxGeometry>
        </mxCell>
        <mxCell id="zGH8Ojjeit0GXSnpcEq4-104" value="1" style="resizable=0;html=1;align=right;verticalAlign=bottom;spacingRight=-10;spacingLeft=0;" parent="zGH8Ojjeit0GXSnpcEq4-103" connectable="0" vertex="1">
          <mxGeometry x="1" relative="1" as="geometry">
            <mxPoint x="-10" as="offset" />
          </mxGeometry>
        </mxCell>
        <mxCell id="zGH8Ojjeit0GXSnpcEq4-105" value="" style="endArrow=none;html=1;rounded=0;strokeWidth=1;exitX=0;exitY=0.5;exitDx=0;exitDy=0;entryX=1;entryY=0.5;entryDx=0;entryDy=0;shape=link;" parent="zGH8Ojjeit0GXSnpcEq4-1" source="zGH8Ojjeit0GXSnpcEq4-38" target="zGH8Ojjeit0GXSnpcEq4-40" edge="1">
          <mxGeometry relative="1" as="geometry">
            <mxPoint x="720" y="499.76" as="sourcePoint" />
            <mxPoint x="690" y="499.76" as="targetPoint" />
            <Array as="points">
              <mxPoint x="700" y="499.76" />
            </Array>
          </mxGeometry>
        </mxCell>
        <mxCell id="zGH8Ojjeit0GXSnpcEq4-106" value="1" style="resizable=0;html=1;align=right;verticalAlign=bottom;" parent="zGH8Ojjeit0GXSnpcEq4-105" connectable="0" vertex="1">
          <mxGeometry x="1" relative="1" as="geometry">
            <mxPoint x="10" as="offset" />
          </mxGeometry>
        </mxCell>
        <mxCell id="zGH8Ojjeit0GXSnpcEq4-107" value="Vendor" style="ellipse;whiteSpace=wrap;html=1;align=center;shadow=0;strokeColor=#666666;strokeWidth=1;fillColor=#FFFFFF;" parent="zGH8Ojjeit0GXSnpcEq4-1" vertex="1">
          <mxGeometry x="740.01" y="590" width="80" height="40" as="geometry" />
        </mxCell>
        <mxCell id="zGH8Ojjeit0GXSnpcEq4-108" value="Date" style="ellipse;whiteSpace=wrap;html=1;align=center;shadow=0;strokeColor=#666666;strokeWidth=1;fillColor=#FFFFFF;" parent="zGH8Ojjeit0GXSnpcEq4-1" vertex="1">
          <mxGeometry x="840.01" y="590" width="80" height="40" as="geometry" />
        </mxCell>
        <mxCell id="zGH8Ojjeit0GXSnpcEq4-109" value="&lt;span style=&quot;border-bottom: 1px dotted&quot;&gt;VendorDate&lt;/span&gt;" style="ellipse;whiteSpace=wrap;html=1;align=center;" parent="zGH8Ojjeit0GXSnpcEq4-1" vertex="1">
          <mxGeometry x="780" y="540" width="80" height="40" as="geometry" />
        </mxCell>
        <mxCell id="zGH8Ojjeit0GXSnpcEq4-110" value="" style="endArrow=none;html=1;rounded=0;entryX=0.25;entryY=1;entryDx=0;entryDy=0;exitX=0.5;exitY=0;exitDx=0;exitDy=0;" parent="zGH8Ojjeit0GXSnpcEq4-1" source="zGH8Ojjeit0GXSnpcEq4-100" target="zGH8Ojjeit0GXSnpcEq4-38" edge="1">
          <mxGeometry relative="1" as="geometry">
            <mxPoint x="430" y="420" as="sourcePoint" />
            <mxPoint x="590" y="420" as="targetPoint" />
          </mxGeometry>
        </mxCell>
        <mxCell id="zGH8Ojjeit0GXSnpcEq4-111" value="" style="endArrow=none;html=1;rounded=0;entryX=0.75;entryY=1;entryDx=0;entryDy=0;exitX=0.5;exitY=0;exitDx=0;exitDy=0;" parent="zGH8Ojjeit0GXSnpcEq4-1" source="zGH8Ojjeit0GXSnpcEq4-109" target="zGH8Ojjeit0GXSnpcEq4-38" edge="1">
          <mxGeometry relative="1" as="geometry">
            <mxPoint x="720" y="550" as="sourcePoint" />
            <mxPoint x="760" y="530" as="targetPoint" />
          </mxGeometry>
        </mxCell>
        <mxCell id="zGH8Ojjeit0GXSnpcEq4-112" value="" style="endArrow=none;html=1;rounded=0;entryX=0;entryY=1;entryDx=0;entryDy=0;exitX=0.5;exitY=0;exitDx=0;exitDy=0;" parent="zGH8Ojjeit0GXSnpcEq4-1" source="zGH8Ojjeit0GXSnpcEq4-107" target="zGH8Ojjeit0GXSnpcEq4-109" edge="1">
          <mxGeometry relative="1" as="geometry">
            <mxPoint x="730" y="560" as="sourcePoint" />
            <mxPoint x="770" y="540" as="targetPoint" />
          </mxGeometry>
        </mxCell>
        <mxCell id="zGH8Ojjeit0GXSnpcEq4-113" value="" style="endArrow=none;html=1;rounded=0;entryX=1;entryY=1;entryDx=0;entryDy=0;exitX=0.5;exitY=0;exitDx=0;exitDy=0;" parent="zGH8Ojjeit0GXSnpcEq4-1" source="zGH8Ojjeit0GXSnpcEq4-108" target="zGH8Ojjeit0GXSnpcEq4-109" edge="1">
          <mxGeometry relative="1" as="geometry">
            <mxPoint x="740" y="570" as="sourcePoint" />
            <mxPoint x="780" y="550" as="targetPoint" />
          </mxGeometry>
        </mxCell>
        <mxCell id="zGH8Ojjeit0GXSnpcEq4-118" value="1" style="endArrow=none;html=1;rounded=0;entryX=0.5;entryY=1;entryDx=0;entryDy=0;shape=link;" parent="zGH8Ojjeit0GXSnpcEq4-1" source="JMqnGaoPB3oiBnahbfs6-10" target="zGH8Ojjeit0GXSnpcEq4-36" edge="1">
          <mxGeometry x="0.957" y="10" relative="1" as="geometry">
            <mxPoint x="1020" y="750" as="sourcePoint" />
            <mxPoint x="670" y="460" as="targetPoint" />
            <Array as="points">
              <mxPoint x="1020" y="740" />
            </Array>
            <mxPoint as="offset" />
          </mxGeometry>
        </mxCell>
        <mxCell id="zGH8Ojjeit0GXSnpcEq4-119" value="1" style="endArrow=none;html=1;rounded=0;entryX=1;entryY=1;entryDx=0;entryDy=0;exitX=0.5;exitY=0;exitDx=0;exitDy=0;" parent="zGH8Ojjeit0GXSnpcEq4-1" source="zGH8Ojjeit0GXSnpcEq4-36" target="zGH8Ojjeit0GXSnpcEq4-28" edge="1">
          <mxGeometry x="-1" y="-11" relative="1" as="geometry">
            <mxPoint x="510" y="460" as="sourcePoint" />
            <mxPoint x="670" y="460" as="targetPoint" />
            <mxPoint x="2" y="3" as="offset" />
          </mxGeometry>
        </mxCell>
        <mxCell id="zGH8Ojjeit0GXSnpcEq4-121" value="Password" style="ellipse;whiteSpace=wrap;html=1;align=center;shadow=0;strokeColor=#666666;strokeWidth=1;fillColor=#FFFFFF;" parent="zGH8Ojjeit0GXSnpcEq4-1" vertex="1">
          <mxGeometry x="10.000000000000002" y="160" width="80" height="40" as="geometry" />
        </mxCell>
        <mxCell id="zGH8Ojjeit0GXSnpcEq4-122" value="Name" style="ellipse;whiteSpace=wrap;html=1;align=center;shadow=0;strokeColor=#666666;strokeWidth=1;fillColor=#FFFFFF;" parent="zGH8Ojjeit0GXSnpcEq4-1" vertex="1">
          <mxGeometry x="561.01" y="95" width="80" height="40" as="geometry" />
        </mxCell>
        <mxCell id="zGH8Ojjeit0GXSnpcEq4-123" value="" style="endArrow=none;html=1;rounded=0;entryX=0;entryY=0.25;entryDx=0;entryDy=0;exitX=1;exitY=0.5;exitDx=0;exitDy=0;" parent="zGH8Ojjeit0GXSnpcEq4-1" source="zGH8Ojjeit0GXSnpcEq4-122" target="zGH8Ojjeit0GXSnpcEq4-28" edge="1">
          <mxGeometry width="50" height="50" relative="1" as="geometry">
            <mxPoint x="670" y="105" as="sourcePoint" />
            <mxPoint x="730" y="135" as="targetPoint" />
          </mxGeometry>
        </mxCell>
        <mxCell id="zGH8Ojjeit0GXSnpcEq4-124" value="DogID" style="ellipse;whiteSpace=wrap;html=1;align=center;shadow=0;strokeColor=#666666;strokeWidth=1;fillColor=#FFFFFF;fontStyle=4" parent="zGH8Ojjeit0GXSnpcEq4-1" vertex="1">
          <mxGeometry x="561.01" y="160" width="80" height="40" as="geometry" />
        </mxCell>
        <mxCell id="zGH8Ojjeit0GXSnpcEq4-125" value="" style="endArrow=none;html=1;rounded=0;exitX=1;exitY=0.5;exitDx=0;exitDy=0;entryX=0;entryY=0.75;entryDx=0;entryDy=0;" parent="zGH8Ojjeit0GXSnpcEq4-1" source="zGH8Ojjeit0GXSnpcEq4-124" target="zGH8Ojjeit0GXSnpcEq4-28" edge="1">
          <mxGeometry width="50" height="50" relative="1" as="geometry">
            <mxPoint x="639" y="84" as="sourcePoint" />
            <mxPoint x="690" y="180" as="targetPoint" />
          </mxGeometry>
        </mxCell>
        <mxCell id="zGH8Ojjeit0GXSnpcEq4-126" value="&lt;b&gt;REGISTERS&lt;/b&gt;" style="shape=rhombus;perimeter=rhombusPerimeter;whiteSpace=wrap;html=1;align=center;shadow=0;strokeColor=#666666;strokeWidth=1;fillColor=#EEEEEE;" parent="zGH8Ojjeit0GXSnpcEq4-1" vertex="1">
          <mxGeometry x="340" y="95" width="100" height="100" as="geometry" />
        </mxCell>
        <mxCell id="zGH8Ojjeit0GXSnpcEq4-127" value="&lt;b&gt;DIRECTOR&lt;/b&gt;" style="whiteSpace=wrap;html=1;align=center;shadow=0;strokeColor=#666666;strokeWidth=1;fillColor=#E3E3E3;" parent="zGH8Ojjeit0GXSnpcEq4-1" vertex="1">
          <mxGeometry x="201" y="320" width="119" height="40" as="geometry" />
        </mxCell>
        <mxCell id="zGH8Ojjeit0GXSnpcEq4-128" value="&lt;b&gt;VOLUNTEER&lt;/b&gt;" style="whiteSpace=wrap;html=1;align=center;shadow=0;strokeColor=#666666;strokeWidth=1;fillColor=#E3E3E3;" parent="zGH8Ojjeit0GXSnpcEq4-1" vertex="1">
          <mxGeometry x="40" y="320" width="119" height="40" as="geometry" />
        </mxCell>
        <mxCell id="zGH8Ojjeit0GXSnpcEq4-132" value="&lt;b&gt;d&lt;/b&gt;" style="ellipse;whiteSpace=wrap;html=1;aspect=fixed;shadow=0;strokeColor=#666666;strokeWidth=1;gradientColor=none;fillColor=none;fontSize=15;" parent="zGH8Ojjeit0GXSnpcEq4-1" vertex="1">
          <mxGeometry x="159" y="210" width="40" height="40" as="geometry" />
        </mxCell>
        <mxCell id="zGH8Ojjeit0GXSnpcEq4-133" value="" style="endArrow=none;html=1;rounded=0;exitX=0;exitY=0.5;exitDx=0;exitDy=0;entryX=0.5;entryY=0;entryDx=0;entryDy=0;" parent="zGH8Ojjeit0GXSnpcEq4-1" source="zGH8Ojjeit0GXSnpcEq4-132" target="zGH8Ojjeit0GXSnpcEq4-128" edge="1">
          <mxGeometry width="50" height="50" relative="1" as="geometry">
            <mxPoint x="150" y="280" as="sourcePoint" />
            <mxPoint x="210" y="310" as="targetPoint" />
          </mxGeometry>
        </mxCell>
        <mxCell id="zGH8Ojjeit0GXSnpcEq4-134" value="" style="endArrow=none;html=1;rounded=0;exitX=0.5;exitY=0;exitDx=0;exitDy=0;entryX=1;entryY=0.5;entryDx=0;entryDy=0;" parent="zGH8Ojjeit0GXSnpcEq4-1" source="zGH8Ojjeit0GXSnpcEq4-127" target="zGH8Ojjeit0GXSnpcEq4-132" edge="1">
          <mxGeometry width="50" height="50" relative="1" as="geometry">
            <mxPoint x="260.5" y="315.86" as="sourcePoint" />
            <mxPoint x="193.14213562373106" y="240.00213562373096" as="targetPoint" />
          </mxGeometry>
        </mxCell>
        <mxCell id="zGH8Ojjeit0GXSnpcEq4-135" value="" style="endArrow=none;html=1;rounded=0;exitX=0.5;exitY=1;exitDx=0;exitDy=0;shape=link;" parent="zGH8Ojjeit0GXSnpcEq4-1" source="zGH8Ojjeit0GXSnpcEq4-82" edge="1">
          <mxGeometry width="50" height="50" relative="1" as="geometry">
            <mxPoint x="150" y="320" as="sourcePoint" />
            <mxPoint x="180" y="210" as="targetPoint" />
          </mxGeometry>
        </mxCell>
        <mxCell id="JMqnGaoPB3oiBnahbfs6-2" value="&lt;b&gt;&lt;font style=&quot;font-size: 16px&quot;&gt;d&lt;/font&gt;&lt;/b&gt;" style="ellipse;whiteSpace=wrap;html=1;aspect=fixed;shadow=0;strokeColor=#666666;strokeWidth=1;gradientColor=none;fillColor=none;" parent="zGH8Ojjeit0GXSnpcEq4-1" vertex="1">
          <mxGeometry x="640" y="680" width="40" height="40" as="geometry" />
        </mxCell>
        <mxCell id="JMqnGaoPB3oiBnahbfs6-3" value="" style="endArrow=none;html=1;rounded=0;exitX=1;exitY=0.5;exitDx=0;exitDy=0;shape=link;entryX=0;entryY=0.5;entryDx=0;entryDy=0;" parent="zGH8Ojjeit0GXSnpcEq4-1" source="zGH8Ojjeit0GXSnpcEq4-9" target="JMqnGaoPB3oiBnahbfs6-2" edge="1">
          <mxGeometry width="50" height="50" relative="1" as="geometry">
            <mxPoint x="632.27" y="1330" as="sourcePoint" />
            <mxPoint x="702.28" y="705" as="targetPoint" />
          </mxGeometry>
        </mxCell>
        <mxCell id="JMqnGaoPB3oiBnahbfs6-4" value="" style="endArrow=none;html=1;rounded=0;entryX=0;entryY=0.5;entryDx=0;entryDy=0;exitX=0.5;exitY=1;exitDx=0;exitDy=0;" parent="zGH8Ojjeit0GXSnpcEq4-1" source="JMqnGaoPB3oiBnahbfs6-2" target="JMqnGaoPB3oiBnahbfs6-9" edge="1">
          <mxGeometry width="50" height="50" relative="1" as="geometry">
            <mxPoint x="701" y="720" as="sourcePoint" />
            <mxPoint x="828.99" y="910" as="targetPoint" />
            <Array as="points">
              <mxPoint x="660" y="820" />
            </Array>
          </mxGeometry>
        </mxCell>
        <mxCell id="JMqnGaoPB3oiBnahbfs6-5" value="" style="endArrow=none;html=1;rounded=0;exitX=1;exitY=0.5;exitDx=0;exitDy=0;entryX=0;entryY=0.5;entryDx=0;entryDy=0;" parent="zGH8Ojjeit0GXSnpcEq4-1" source="JMqnGaoPB3oiBnahbfs6-2" target="JMqnGaoPB3oiBnahbfs6-10" edge="1">
          <mxGeometry width="50" height="50" relative="1" as="geometry">
            <mxPoint x="668.99" y="1245" as="sourcePoint" />
            <mxPoint x="578.99" y="1223" as="targetPoint" />
            <Array as="points">
              <mxPoint x="730" y="700" />
            </Array>
          </mxGeometry>
        </mxCell>
        <mxCell id="JMqnGaoPB3oiBnahbfs6-7" value="U" style="text;html=1;strokeColor=none;fillColor=none;align=center;verticalAlign=middle;whiteSpace=wrap;rounded=0;shadow=0;fontSize=23;rotation=-60;" parent="zGH8Ojjeit0GXSnpcEq4-1" vertex="1">
          <mxGeometry x="740.01" y="705" width="30" height="20" as="geometry" />
        </mxCell>
        <mxCell id="JMqnGaoPB3oiBnahbfs6-9" value="&lt;b&gt;REJECTION&lt;/b&gt;" style="shape=ext;margin=3;double=1;whiteSpace=wrap;html=1;align=center;shadow=0;strokeColor=#666666;strokeWidth=1;fillColor=#E3E3E3;" parent="zGH8Ojjeit0GXSnpcEq4-1" vertex="1">
          <mxGeometry x="800.01" y="800" width="120" height="40" as="geometry" />
        </mxCell>
        <mxCell id="JMqnGaoPB3oiBnahbfs6-10" value="&lt;b&gt;ADOPTION&lt;/b&gt;" style="shape=ext;margin=3;double=1;whiteSpace=wrap;html=1;align=center;shadow=0;strokeColor=#666666;strokeWidth=1;fillColor=#E3E3E3;" parent="zGH8Ojjeit0GXSnpcEq4-1" vertex="1">
          <mxGeometry x="800.01" y="720" width="120" height="40" as="geometry" />
        </mxCell>
        <mxCell id="JMqnGaoPB3oiBnahbfs6-6" value="U" style="text;html=1;strokeColor=none;fillColor=none;align=center;verticalAlign=middle;whiteSpace=wrap;rounded=0;shadow=0;fontSize=23;rotation=-90;" parent="zGH8Ojjeit0GXSnpcEq4-1" vertex="1">
          <mxGeometry x="740.01" y="810" width="30" height="20" as="geometry" />
        </mxCell>
        <mxCell id="p589Ew_iqoeMU6iKurLb-2" value="" style="endArrow=none;html=1;strokeWidth=1;exitX=1;exitY=0.5;exitDx=0;exitDy=0;entryX=0;entryY=0.75;entryDx=0;entryDy=0;" parent="zGH8Ojjeit0GXSnpcEq4-1" source="zGH8Ojjeit0GXSnpcEq4-121" target="zGH8Ojjeit0GXSnpcEq4-82" edge="1">
          <mxGeometry width="50" height="50" relative="1" as="geometry">
            <mxPoint x="110" y="370" as="sourcePoint" />
            <mxPoint x="110" y="395" as="targetPoint" />
          </mxGeometry>
        </mxCell>
        <mxCell id="p589Ew_iqoeMU6iKurLb-3" value="" style="endArrow=none;html=1;strokeWidth=1;exitX=1;exitY=0.5;exitDx=0;exitDy=0;entryX=0;entryY=0.25;entryDx=0;entryDy=0;" parent="zGH8Ojjeit0GXSnpcEq4-1" source="zGH8Ojjeit0GXSnpcEq4-18" target="zGH8Ojjeit0GXSnpcEq4-82" edge="1">
          <mxGeometry width="50" height="50" relative="1" as="geometry">
            <mxPoint x="100" y="190" as="sourcePoint" />
            <mxPoint x="131" y="165" as="targetPoint" />
          </mxGeometry>
        </mxCell>
        <mxCell id="p589Ew_iqoeMU6iKurLb-4" value="" style="endArrow=none;html=1;strokeWidth=1;exitX=1;exitY=1;exitDx=0;exitDy=0;entryX=0.25;entryY=0;entryDx=0;entryDy=0;" parent="zGH8Ojjeit0GXSnpcEq4-1" source="zGH8Ojjeit0GXSnpcEq4-25" target="zGH8Ojjeit0GXSnpcEq4-82" edge="1">
          <mxGeometry width="50" height="50" relative="1" as="geometry">
            <mxPoint x="101" y="140" as="sourcePoint" />
            <mxPoint x="131" y="145" as="targetPoint" />
          </mxGeometry>
        </mxCell>
        <mxCell id="p589Ew_iqoeMU6iKurLb-5" value="" style="endArrow=none;html=1;strokeWidth=1;exitX=0.5;exitY=1;exitDx=0;exitDy=0;entryX=0.5;entryY=0;entryDx=0;entryDy=0;" parent="zGH8Ojjeit0GXSnpcEq4-1" source="zGH8Ojjeit0GXSnpcEq4-20" target="zGH8Ojjeit0GXSnpcEq4-82" edge="1">
          <mxGeometry width="50" height="50" relative="1" as="geometry">
            <mxPoint x="118" y="84" as="sourcePoint" />
            <mxPoint x="161" y="135" as="targetPoint" />
          </mxGeometry>
        </mxCell>
        <mxCell id="p589Ew_iqoeMU6iKurLb-6" value="" style="endArrow=none;html=1;strokeWidth=1;exitX=0;exitY=1;exitDx=0;exitDy=0;entryX=0.75;entryY=0;entryDx=0;entryDy=0;" parent="zGH8Ojjeit0GXSnpcEq4-1" source="zGH8Ojjeit0GXSnpcEq4-19" target="zGH8Ojjeit0GXSnpcEq4-82" edge="1">
          <mxGeometry width="50" height="50" relative="1" as="geometry">
            <mxPoint x="128" y="94" as="sourcePoint" />
            <mxPoint x="171" y="145" as="targetPoint" />
          </mxGeometry>
        </mxCell>
        <mxCell id="NAoBgNbqaR9FXOEU-R0O-16" value="&lt;b&gt;ADOPTER&lt;/b&gt;" style="whiteSpace=wrap;html=1;align=center;shadow=0;strokeColor=#666666;strokeWidth=1;fillColor=#E3E3E3;" parent="zGH8Ojjeit0GXSnpcEq4-1" vertex="1">
          <mxGeometry x="221.01" y="680" width="120" height="40" as="geometry" />
        </mxCell>
        <mxCell id="NAoBgNbqaR9FXOEU-R0O-17" value="Street" style="ellipse;whiteSpace=wrap;html=1;align=center;shadow=0;strokeColor=#666666;strokeWidth=1;fillColor=#FFFFFF;" parent="zGH8Ojjeit0GXSnpcEq4-1" vertex="1">
          <mxGeometry x="118.99999999999999" y="600" width="80" height="40" as="geometry" />
        </mxCell>
        <mxCell id="NAoBgNbqaR9FXOEU-R0O-18" value="City" style="ellipse;whiteSpace=wrap;html=1;align=center;shadow=0;strokeColor=#666666;strokeWidth=1;fillColor=#FFFFFF;" parent="zGH8Ojjeit0GXSnpcEq4-1" vertex="1">
          <mxGeometry x="39.99999999999999" y="630" width="80" height="40" as="geometry" />
        </mxCell>
        <mxCell id="NAoBgNbqaR9FXOEU-R0O-19" value="State" style="ellipse;whiteSpace=wrap;html=1;align=center;shadow=0;strokeColor=#666666;strokeWidth=1;fillColor=#FFFFFF;" parent="zGH8Ojjeit0GXSnpcEq4-1" vertex="1">
          <mxGeometry x="9.999999999999988" y="680" width="80" height="40" as="geometry" />
        </mxCell>
        <mxCell id="NAoBgNbqaR9FXOEU-R0O-20" value="Zip" style="ellipse;whiteSpace=wrap;html=1;align=center;shadow=0;strokeColor=#666666;strokeWidth=1;fillColor=#FFFFFF;" parent="zGH8Ojjeit0GXSnpcEq4-1" vertex="1">
          <mxGeometry x="39.99999999999999" y="730.0000000000001" width="80" height="40" as="geometry" />
        </mxCell>
        <mxCell id="NAoBgNbqaR9FXOEU-R0O-21" value="Address" style="ellipse;whiteSpace=wrap;html=1;align=center;shadow=0;strokeColor=#666666;strokeWidth=1;fillColor=#FFFFFF;" parent="zGH8Ojjeit0GXSnpcEq4-1" vertex="1">
          <mxGeometry x="119.99999999999999" y="685" width="80" height="40" as="geometry" />
        </mxCell>
        <mxCell id="NAoBgNbqaR9FXOEU-R0O-22" value="Household" style="ellipse;whiteSpace=wrap;html=1;align=center;shadow=0;strokeColor=#666666;strokeWidth=1;fillColor=#FFFFFF;" parent="zGH8Ojjeit0GXSnpcEq4-1" vertex="1">
          <mxGeometry x="241.01" y="750" width="80" height="40" as="geometry" />
        </mxCell>
        <mxCell id="NAoBgNbqaR9FXOEU-R0O-23" value="" style="endArrow=none;html=1;strokeWidth=1;entryX=0.5;entryY=0;entryDx=0;entryDy=0;exitX=0.5;exitY=1;exitDx=0;exitDy=0;" parent="zGH8Ojjeit0GXSnpcEq4-1" source="NAoBgNbqaR9FXOEU-R0O-17" target="NAoBgNbqaR9FXOEU-R0O-21" edge="1">
          <mxGeometry width="50" height="50" relative="1" as="geometry">
            <mxPoint x="239" y="670" as="sourcePoint" />
            <mxPoint x="289" y="620" as="targetPoint" />
          </mxGeometry>
        </mxCell>
        <mxCell id="NAoBgNbqaR9FXOEU-R0O-24" value="" style="endArrow=none;html=1;strokeWidth=1;exitX=1;exitY=1;exitDx=0;exitDy=0;entryX=0;entryY=0;entryDx=0;entryDy=0;" parent="zGH8Ojjeit0GXSnpcEq4-1" source="NAoBgNbqaR9FXOEU-R0O-18" target="NAoBgNbqaR9FXOEU-R0O-21" edge="1">
          <mxGeometry width="50" height="50" relative="1" as="geometry">
            <mxPoint x="239" y="750.0000000000001" as="sourcePoint" />
            <mxPoint x="309" y="800.0000000000001" as="targetPoint" />
          </mxGeometry>
        </mxCell>
        <mxCell id="NAoBgNbqaR9FXOEU-R0O-25" value="" style="endArrow=none;html=1;strokeWidth=1;exitX=1;exitY=0.5;exitDx=0;exitDy=0;entryX=0;entryY=0.5;entryDx=0;entryDy=0;" parent="zGH8Ojjeit0GXSnpcEq4-1" source="NAoBgNbqaR9FXOEU-R0O-19" target="NAoBgNbqaR9FXOEU-R0O-21" edge="1">
          <mxGeometry width="50" height="50" relative="1" as="geometry">
            <mxPoint x="239" y="650" as="sourcePoint" />
            <mxPoint x="309" y="700.0000000000001" as="targetPoint" />
          </mxGeometry>
        </mxCell>
        <mxCell id="NAoBgNbqaR9FXOEU-R0O-26" value="" style="endArrow=none;html=1;strokeWidth=1;exitX=1;exitY=0;exitDx=0;exitDy=0;entryX=0;entryY=1;entryDx=0;entryDy=0;" parent="zGH8Ojjeit0GXSnpcEq4-1" source="NAoBgNbqaR9FXOEU-R0O-20" target="NAoBgNbqaR9FXOEU-R0O-21" edge="1">
          <mxGeometry width="50" height="50" relative="1" as="geometry">
            <mxPoint x="249" y="660" as="sourcePoint" />
            <mxPoint x="319" y="710.0000000000001" as="targetPoint" />
          </mxGeometry>
        </mxCell>
        <mxCell id="NAoBgNbqaR9FXOEU-R0O-27" style="edgeStyle=none;shape=link;rounded=0;sketch=0;jumpStyle=none;orthogonalLoop=1;jettySize=auto;html=1;exitX=0.5;exitY=1;exitDx=0;exitDy=0;startArrow=none;startFill=0;endArrow=none;endFill=0;strokeWidth=1;" parent="zGH8Ojjeit0GXSnpcEq4-1" source="NAoBgNbqaR9FXOEU-R0O-20" target="NAoBgNbqaR9FXOEU-R0O-20" edge="1">
          <mxGeometry relative="1" as="geometry" />
        </mxCell>
        <mxCell id="NAoBgNbqaR9FXOEU-R0O-28" value="" style="endArrow=none;html=1;rounded=0;entryX=0;entryY=0.5;entryDx=0;entryDy=0;exitX=1;exitY=0.5;exitDx=0;exitDy=0;" parent="zGH8Ojjeit0GXSnpcEq4-1" source="NAoBgNbqaR9FXOEU-R0O-21" target="NAoBgNbqaR9FXOEU-R0O-16" edge="1">
          <mxGeometry width="50" height="50" relative="1" as="geometry">
            <mxPoint x="-18.990000000000013" y="850.0000000000001" as="sourcePoint" />
            <mxPoint x="31.009999999999987" y="800.0000000000001" as="targetPoint" />
          </mxGeometry>
        </mxCell>
        <mxCell id="NAoBgNbqaR9FXOEU-R0O-29" value="" style="endArrow=none;html=1;rounded=0;entryX=0.5;entryY=0;entryDx=0;entryDy=0;exitX=0.5;exitY=1;exitDx=0;exitDy=0;" parent="zGH8Ojjeit0GXSnpcEq4-1" source="NAoBgNbqaR9FXOEU-R0O-16" target="NAoBgNbqaR9FXOEU-R0O-22" edge="1">
          <mxGeometry width="50" height="50" relative="1" as="geometry">
            <mxPoint x="-18.990000000000013" y="850.0000000000001" as="sourcePoint" />
            <mxPoint x="31.009999999999987" y="800.0000000000001" as="targetPoint" />
          </mxGeometry>
        </mxCell>
        <mxCell id="Q7WPqR6M7uWx8ZO_dCwx-2" value="Phone" style="ellipse;whiteSpace=wrap;html=1;align=center;shadow=0;strokeColor=#666666;strokeWidth=1;fillColor=#FFFFFF;" parent="zGH8Ojjeit0GXSnpcEq4-1" vertex="1">
          <mxGeometry x="130" y="750" width="80" height="40" as="geometry" />
        </mxCell>
        <mxCell id="Q7WPqR6M7uWx8ZO_dCwx-3" value="LastName" style="ellipse;whiteSpace=wrap;html=1;align=center;shadow=0;strokeColor=#666666;strokeWidth=1;fillColor=#FFFFFF;" parent="zGH8Ojjeit0GXSnpcEq4-1" vertex="1">
          <mxGeometry x="310" y="620" width="80" height="40" as="geometry" />
        </mxCell>
        <mxCell id="Q7WPqR6M7uWx8ZO_dCwx-4" value="FirstName" style="ellipse;whiteSpace=wrap;html=1;align=center;shadow=0;strokeColor=#666666;strokeWidth=1;fillColor=#FFFFFF;" parent="zGH8Ojjeit0GXSnpcEq4-1" vertex="1">
          <mxGeometry x="201" y="620" width="80" height="40" as="geometry" />
        </mxCell>
        <mxCell id="Q7WPqR6M7uWx8ZO_dCwx-5" style="edgeStyle=none;shape=link;rounded=0;sketch=0;jumpStyle=none;orthogonalLoop=1;jettySize=auto;html=1;exitX=0.5;exitY=1;exitDx=0;exitDy=0;startArrow=none;startFill=0;endArrow=none;endFill=0;strokeWidth=1;" parent="zGH8Ojjeit0GXSnpcEq4-1" source="Q7WPqR6M7uWx8ZO_dCwx-3" target="Q7WPqR6M7uWx8ZO_dCwx-3" edge="1">
          <mxGeometry relative="1" as="geometry" />
        </mxCell>
        <mxCell id="Q7WPqR6M7uWx8ZO_dCwx-6" value="Email" style="ellipse;whiteSpace=wrap;html=1;align=center;fontStyle=4;shadow=0;strokeColor=#666666;strokeWidth=1;fillColor=#FFFFFF;" parent="zGH8Ojjeit0GXSnpcEq4-1" vertex="1">
          <mxGeometry x="261.01" y="570" width="80" height="40" as="geometry" />
        </mxCell>
        <mxCell id="Q7WPqR6M7uWx8ZO_dCwx-7" value="" style="endArrow=none;html=1;strokeWidth=1;exitX=1;exitY=0;exitDx=0;exitDy=0;entryX=0.25;entryY=1;entryDx=0;entryDy=0;" parent="zGH8Ojjeit0GXSnpcEq4-1" source="Q7WPqR6M7uWx8ZO_dCwx-2" target="NAoBgNbqaR9FXOEU-R0O-16" edge="1">
          <mxGeometry width="50" height="50" relative="1" as="geometry">
            <mxPoint x="115.12" y="626" as="sourcePoint" />
            <mxPoint x="136.12" y="571" as="targetPoint" />
          </mxGeometry>
        </mxCell>
        <mxCell id="Q7WPqR6M7uWx8ZO_dCwx-8" value="" style="endArrow=none;html=1;strokeWidth=1;exitX=0.5;exitY=1;exitDx=0;exitDy=0;entryX=0.5;entryY=0;entryDx=0;entryDy=0;" parent="zGH8Ojjeit0GXSnpcEq4-1" source="Q7WPqR6M7uWx8ZO_dCwx-6" target="NAoBgNbqaR9FXOEU-R0O-16" edge="1">
          <mxGeometry width="50" height="50" relative="1" as="geometry">
            <mxPoint x="116.12" y="576" as="sourcePoint" />
            <mxPoint x="166.12" y="561" as="targetPoint" />
          </mxGeometry>
        </mxCell>
        <mxCell id="Q7WPqR6M7uWx8ZO_dCwx-9" value="" style="endArrow=none;html=1;strokeWidth=1;exitX=0.5;exitY=1;exitDx=0;exitDy=0;entryX=0.25;entryY=0;entryDx=0;entryDy=0;" parent="zGH8Ojjeit0GXSnpcEq4-1" source="Q7WPqR6M7uWx8ZO_dCwx-4" target="NAoBgNbqaR9FXOEU-R0O-16" edge="1">
          <mxGeometry width="50" height="50" relative="1" as="geometry">
            <mxPoint x="133.12" y="520" as="sourcePoint" />
            <mxPoint x="196.12" y="561" as="targetPoint" />
          </mxGeometry>
        </mxCell>
        <mxCell id="Q7WPqR6M7uWx8ZO_dCwx-10" value="" style="endArrow=none;html=1;strokeWidth=1;exitX=0.5;exitY=1;exitDx=0;exitDy=0;entryX=0.75;entryY=0;entryDx=0;entryDy=0;" parent="zGH8Ojjeit0GXSnpcEq4-1" source="Q7WPqR6M7uWx8ZO_dCwx-3" target="NAoBgNbqaR9FXOEU-R0O-16" edge="1">
          <mxGeometry width="50" height="50" relative="1" as="geometry">
            <mxPoint x="143.12" y="530" as="sourcePoint" />
            <mxPoint x="310" y="680" as="targetPoint" />
          </mxGeometry>
        </mxCell>
        <mxCell id="ySgRV2_XmpmrRqT04iPt-1" value="" style="endArrow=none;html=1;rounded=0;strokeWidth=1;align=center;fontStyle=0;exitX=1;exitY=0.5;exitDx=0;exitDy=0;entryX=0;entryY=0.5;entryDx=0;entryDy=0;" parent="zGH8Ojjeit0GXSnpcEq4-1" source="NAoBgNbqaR9FXOEU-R0O-16" target="ySgRV2_XmpmrRqT04iPt-5" edge="1">
          <mxGeometry relative="1" as="geometry">
            <mxPoint x="432" y="780" as="sourcePoint" />
            <mxPoint x="370" y="700" as="targetPoint" />
          </mxGeometry>
        </mxCell>
        <mxCell id="ySgRV2_XmpmrRqT04iPt-2" value="1" style="resizable=0;html=1;align=right;verticalAlign=bottom;spacingRight=-10;spacingLeft=0;" parent="ySgRV2_XmpmrRqT04iPt-1" connectable="0" vertex="1">
          <mxGeometry x="1" relative="1" as="geometry">
            <mxPoint x="-10" as="offset" />
          </mxGeometry>
        </mxCell>
        <mxCell id="ySgRV2_XmpmrRqT04iPt-3" value="" style="endArrow=none;html=1;rounded=0;strokeWidth=1;exitX=0;exitY=0.5;exitDx=0;exitDy=0;entryX=1;entryY=0.5;entryDx=0;entryDy=0;shape=link;" parent="zGH8Ojjeit0GXSnpcEq4-1" source="zGH8Ojjeit0GXSnpcEq4-9" target="ySgRV2_XmpmrRqT04iPt-5" edge="1">
          <mxGeometry relative="1" as="geometry">
            <mxPoint x="570" y="780" as="sourcePoint" />
            <mxPoint x="430" y="700" as="targetPoint" />
          </mxGeometry>
        </mxCell>
        <mxCell id="ySgRV2_XmpmrRqT04iPt-4" value="N" style="resizable=0;html=1;align=right;verticalAlign=bottom;" parent="ySgRV2_XmpmrRqT04iPt-3" connectable="0" vertex="1">
          <mxGeometry x="1" relative="1" as="geometry">
            <mxPoint x="10" as="offset" />
          </mxGeometry>
        </mxCell>
        <mxCell id="ySgRV2_XmpmrRqT04iPt-5" value="&lt;b&gt;REQUESTS&lt;/b&gt;" style="shape=rhombus;double=1;perimeter=rhombusPerimeter;whiteSpace=wrap;html=1;align=center;fillColor=#f5f5f5;fontColor=#333333;strokeColor=#666666;fontSize=11;" parent="zGH8Ojjeit0GXSnpcEq4-1" vertex="1">
          <mxGeometry x="370" y="655" width="90" height="90" as="geometry" />
        </mxCell>
        <mxCell id="9utFZX2bmF9JV--O-6cY-0" value="IsFeeWaived" style="ellipse;whiteSpace=wrap;html=1;align=center;shadow=0;strokeColor=#666666;strokeWidth=1;fillColor=#FFFFFF;" parent="zGH8Ojjeit0GXSnpcEq4-1" vertex="1">
          <mxGeometry x="940" y="770" width="100" height="40" as="geometry" />
        </mxCell>
        <mxCell id="9utFZX2bmF9JV--O-6cY-1" style="edgeStyle=none;rounded=0;sketch=0;jumpStyle=none;orthogonalLoop=1;jettySize=auto;html=1;exitX=0.75;exitY=1;exitDx=0;exitDy=0;entryX=0;entryY=0;entryDx=0;entryDy=0;startArrow=none;startFill=0;endArrow=none;endFill=0;strokeWidth=1;" parent="zGH8Ojjeit0GXSnpcEq4-1" source="JMqnGaoPB3oiBnahbfs6-10" target="9utFZX2bmF9JV--O-6cY-0" edge="1">
          <mxGeometry relative="1" as="geometry">
            <mxPoint x="900" y="730" as="sourcePoint" />
            <mxPoint x="930" y="710" as="targetPoint" />
          </mxGeometry>
        </mxCell>
      </root>
    </mxGraphModel>
  </diagram>
</mxfile>
